<?xml version="1.0" encoding="utf-8"?>
<!-- Generator: Adobe Illustrator 26.0.1, SVG Export Plug-In . SVG Version: 6.00 Build 0)  -->
<svg version="1.1" id="레이어_1" xmlns="http://www.w3.org/2000/svg" xmlns:xlink="http://www.w3.org/1999/xlink" x="0px"
	 y="0px" viewBox="0 0 707.89 81.11" style="enable-background:new 0 0 707.89 81.11;" xml:space="preserve">
<g>
	<path d="M3.94,15.25V5.22h15.68v10.02H3.94z M3.94,75.89V19.12h15.68v56.78H3.94z"/>
	<path d="M49.3,30.53v-9.93c0-3.47-1.09-5.46-4.37-5.46c-3.57,0-4.37,1.99-4.37,5.46c0,11.91,25.21,15.38,25.21,37.22
		c0,13.3-7.15,19.46-20.94,19.46c-10.52,0-20.75-3.57-20.75-15.78V48.4h16.48v12.21c0,4.17,1.29,5.36,4.37,5.36
		c2.68,0,4.37-1.19,4.37-5.36c0-15.98-25.21-16.28-25.21-39.11c0-12.8,8.44-17.67,21.14-17.67c11.12,0,20.55,3.77,20.55,15.58v11.12
		H49.3z"/>
	<path d="M111.83,56.64c0,16.18-9.93,20.65-20.84,20.65s-20.84-4.47-20.84-20.65V24.48c0-16.18,9.93-20.65,20.84-20.65
		s20.84,4.47,20.84,20.65V56.64z M86.62,60.41c0,2.88,0.89,5.56,4.37,5.56s4.37-2.68,4.37-5.56V20.7c0-2.88-0.89-5.56-4.37-5.56
		s-4.37,2.68-4.37,5.56V60.41z"/>
	<path d="M115.99,75.89V5.22h16.48v59.95h17.87v10.72H115.99z"/>
	<path d="M186.46,5.22l9.13,70.67h-16.38l-1.89-17.37h-8.93l-2.68,17.37h-13.9l12.01-70.67H186.46z M176.14,47.8l-2.88-31.47h-0.2
		l-2.88,31.47H176.14z"/>
	<path d="M190.83,15.94V5.22h39.5v10.72h-11.51v59.95h-16.48V15.94H190.83z"/>
	<path d="M233.6,75.89V5.22h16.48v70.67H233.6z"/>
	<path d="M295.84,56.64c0,16.18-9.93,20.65-20.84,20.65s-20.84-4.47-20.84-20.65V24.48c0-16.18,9.93-20.65,20.84-20.65
		s20.84,4.47,20.84,20.65V56.64z M270.63,60.41c0,2.88,0.89,5.56,4.37,5.56s4.37-2.68,4.37-5.56V20.7c0-2.88-0.89-5.56-4.37-5.56
		s-4.37,2.68-4.37,5.56V60.41z"/>
	<path d="M299.6,5.22h22.83l10.52,51.42h0.2V5.22h12.9v70.67h-21.14l-12.21-59.06h-0.2v59.06h-12.9V5.22z"/>
	<path d="M372.85,5.22h16.97c18.46,0,24.71,2.98,24.71,24.12v25.21c0,13.4-3.97,21.34-24.71,21.34h-16.97V5.22z M389.33,65.77
		c8.04,0,8.73-3.08,8.73-9.83V26.86c0-9.43-0.4-11.51-8.73-11.51V65.77z"/>
	<path d="M419,15.25V5.22h15.68v10.02H419z M419,75.89V19.12h15.68v56.78H419z"/>
	<path d="M464.36,30.53v-9.93c0-3.47-1.09-5.46-4.37-5.46c-3.57,0-4.37,1.99-4.37,5.46c0,11.91,25.21,15.38,25.21,37.22
		c0,13.3-7.15,19.46-20.94,19.46c-10.52,0-20.75-3.57-20.75-15.78V48.4h16.48v12.21c0,4.17,1.29,5.36,4.37,5.36
		c2.68,0,4.37-1.19,4.37-5.36c0-15.98-25.21-16.28-25.21-39.11c0-12.8,8.44-17.67,21.14-17.67c11.12,0,20.55,3.77,20.55,15.58v11.12
		H464.36z"/>
	<path d="M526.89,56.64c0,16.18-9.93,20.65-20.84,20.65c-10.92,0-20.84-4.47-20.84-20.65V24.48c0-16.18,9.93-20.65,20.84-20.65
		c10.92,0,20.84,4.47,20.84,20.65V56.64z M501.68,60.41c0,2.88,0.89,5.56,4.37,5.56c3.47,0,4.37-2.68,4.37-5.56V20.7
		c0-2.88-0.89-5.56-4.37-5.56c-3.47,0-4.37,2.68-4.37,5.56V60.41z"/>
	<path d="M531.06,75.89V5.22h16.58c15.68,0,25.01,1.59,25.01,16.48c0,8.83-3.67,14.59-12.61,16.08v0.2
		c7.94,0.2,12.61,3.18,12.61,13.3v14.79c0,2.78,0.5,6.95,2.48,9.83h-16.58c-1.99-2.88-2.38-7.05-2.38-9.83V51.08
		c0-4.96-2.98-7.44-5.96-7.44h-2.68v32.26H531.06z M547.53,33.51c7.44,0,8.64-2.48,8.64-9.13c0-6.55-1.09-9.03-8.64-9.03V33.51z"/>
	<path d="M577.31,5.22h16.97c18.46,0,24.71,2.98,24.71,24.12v25.21c0,13.4-3.97,21.34-24.71,21.34h-16.97V5.22z M593.78,65.77
		c8.04,0,8.73-3.08,8.73-9.83V26.86c0-9.43-0.4-11.51-8.73-11.51V65.77z"/>
	<path d="M623.16,75.89V5.22h34.14v10.72h-17.67v15.48h17.07v10.72h-17.07v23.03h17.67v10.72H623.16z"/>
	<path d="M659.88,75.89V5.22h16.58c15.68,0,25.01,1.59,25.01,16.48c0,8.83-3.67,14.59-12.61,16.08v0.2
		c7.94,0.2,12.61,3.18,12.61,13.3v14.79c0,2.78,0.5,6.95,2.48,9.83h-16.58c-1.99-2.88-2.38-7.05-2.38-9.83V51.08
		c0-4.96-2.98-7.44-5.96-7.44h-2.68v32.26H659.88z M676.36,33.51c7.44,0,8.64-2.48,8.64-9.13c0-6.55-1.09-9.03-8.64-9.03V33.51z"/>
</g>
</svg>
